<?xml version="1.0" encoding="UTF-8"?>
<svg id="Layer_1" data-name="Layer 1" xmlns="http://www.w3.org/2000/svg" version="1.1" viewBox="0 0 1920 1080">
  <defs>
    <style>
      .cls-1 {
        fill: #384b47;
        stroke-width: 0px;
      }
    </style>
  </defs>
  <path class="cls-1" d="M1461.9,98.5c-1.55-.97-21.77,13.08-32.56,21,0,0-8.79,6.45-15.57,12-137.43,112.5-376.53,386-376.53,386-19.19,20.87-44.29,49.05-72.19,83-135.39,164.75-188.71,285.36-198.17,283-12.12-3.02,74.76-201.11,138.72-374,1.89-5.1,3.07-8.33,3.56-9.67,10.43-28.54,36.09-100.81,61.55-193.33,10.19-37.03,30.44-110.59,22.65-112-6.99-1.26-33.28,56.18-42.47,76-83.42,179.92-262.51,510.13-293.01,504-16.82-3.38,9.97-109.29,24.06-165,14.38-56.87,29.49-98.42,50.96-188,20.9-87.23,19.53-101.9,14.16-103-4.36-.89-13.05,6.79-43.88,55-58.87,92.07-78.22,143.88-131.64,230-10.71,17.27-19.25,31.09-32.3,49.69-46.85,66.77-100.51,122.92-153.13,169.31h0s0,0,0,0c-51.41,35.75-60.87,33-60.87,33-17.99-6.36-18.95-41.09-17.05-52.62.02-.13.04-.26.06-.33,0,0,0,0,0-.05,2.94-17.22,9.55-30.87,14.16-39,.94-1.66,2.36-4.09,4.25-7,1.89-3,3.77-6,5.66-9,.75-1.19,1.55-2.15,7.08-9,2.38-2.96,5.66-7,5.66-7,0,0,1.62-2.34,2.83-4,0,0,1.05-1.43,5.66-7-1.09,1.3-1.63,1.96-1.63,1.96l1.63-1.96c13.88-18.11,15.57-20,15.57-20,3.54-3.95,9.91-9.97,22.65-22,.19-.18,3.23-3.05,7.08-7,1.93-1.98,2.89-2.97,2.83-3-.74-.45-55.58,33.28-84.93,73-37.59,50.86-35.92,122.38-4.25,132,48.64,14.77,169.53-113.93,182.6-128,64.16-69.04,104.31-140.64,167.03-254,34.55-62.44,46.46-89.01,52.37-88,23.36,4.01-124.34,424.69-84.93,433,41.78,8.81,336.78-561.76,338.41-561.34.04.01-.09.33-.1.34-8.99,20.71-280.96,759.09-267.53,762,5.01,1.09,42.83-101.88,147.21-248,13.87-19.42,30.48-40.95,63.7-84,59.79-77.5,118.39-153.2,201-248,16.84-19.32,64.88-74.1,130.23-143,7.38-7.78,49.56-52.19,94.84-97,14.23-14.08,39.53-39.53,75.02-71.99,0,0,0,0,0,0,28.57-26.23,51.36-45.86,49.54-47Z"/>
</svg>